<?xml version="1.0" encoding="UTF-8" standalone="no"?>
<svg
   height="512pt"
   version="1.1"
   viewBox="0 0 512 512"
   width="512pt"
   id="svg31"
   sodipodi:docname="ai_ns-logo.svg"
   inkscape:version="1.4.2 (ebf0e940, 2025-05-08)"
   xmlns:inkscape="http://www.inkscape.org/namespaces/inkscape"
   xmlns:sodipodi="http://sodipodi.sourceforge.net/DTD/sodipodi-0.dtd"
   xmlns="http://www.w3.org/2000/svg"
   xmlns:svg="http://www.w3.org/2000/svg">
  <defs
     id="defs31" />
  <sodipodi:namedview
     id="namedview31"
     pagecolor="#ffffff"
     bordercolor="#000000"
     borderopacity="0.25"
     inkscape:showpageshadow="2"
     inkscape:pageopacity="0.0"
     inkscape:pagecheckerboard="0"
     inkscape:deskcolor="#d1d1d1"
     inkscape:document-units="pt"
     inkscape:zoom="0.99552376"
     inkscape:cx="214.45997"
     inkscape:cy="361.11644"
     inkscape:window-width="1792"
     inkscape:window-height="1120"
     inkscape:window-x="0"
     inkscape:window-y="0"
     inkscape:window-maximized="0"
     inkscape:current-layer="svg31" />
  <path
     d="M 0.00 0.00 L 512.00 0.00 L 512.00 512.00 L 0.00 512.00 L 0.00 0.00 Z"
     fill="transparent"
     opacity="1.00"
     stroke="transparent"
     stroke-width="0.25"
     id="path1" />
  <path
     d="m 254.37523,9.6365951 c 4.20755,-2.6908093 7.31244,-7.7252099 12.65168,-8.1881427 -3.33704,7.6383987 -7.54458,14.9296116 -9.89502,23.0020226 -4.84593,12.065207 -7.86377,24.940563 -7.80573,37.989512 -0.20311,50.025783 0.0871,100.080513 -0.14501,150.106313 -0.0871,30.98765 -0.40624,61.97526 0.14501,92.96292 -0.26114,40.76711 -0.29016,81.50529 -0.1741,122.27241 -0.26116,15.97122 0.26116,31.97137 -0.37723,47.94258 -15.66949,0.31827 -31.339,0.49187 -46.97949,0.23147 -1.24777,0 -3.7723,0.0579 -5.02003,0.0579 -0.14502,-14.43775 -0.26118,-28.87549 -0.0871,-43.31325 -0.26118,-5.06331 0.89954,-10.47389 -1.21874,-15.24787 -27.82787,-55.581 -55.7428,-111.13306 -82.14882,-167.40849 -0.66741,13.74336 -0.40624,27.51563 -0.37723,41.28793 0.11601,36.10884 -0.14515,72.21768 -0.26115,108.32652 0.17409,12.03628 -0.29018,24.68018 5.22316,35.76167 2.2924,5.03437 5.86156,9.51906 7.4285,14.90066 -2.20533,0 -6.55798,-0.0289 -8.7633,-0.0289 -1.10267,-0.0289 -3.33702,-0.0868 -4.43969,-0.11566 -1.42188,0 -4.26559,0.0289 -5.68745,0.0289 -15.147193,0.11566 -30.323395,-0.0578 -45.499598,-0.0289 -1.160705,0.0289 -3.482111,0.0865 -4.642814,0.11566 -2.031235,0 -6.06468,0 -8.066893,0.0289 -2.466497,-0.0289 -7.341451,-0.0579 -9.807949,-0.0868 3.424077,-8.18815 10.504372,-14.14844 14.13157,-22.24977 4.787905,-8.70895 7.805734,-18.48844 7.544575,-28.49938 -0.08705,-71.37862 0.203124,-142.75723 -0.08705,-214.13584 0.02902,-15.01643 -5.339235,-29.25166 -13.754339,-41.51938 -2.060249,-3.44308 -4.613799,-6.48109 -7.225382,-9.49015 28.988579,-3.29841 58.32537,-0.43401 87.48806,-1.56242 18.89044,39.60979 38.12911,79.07489 57.19367,118.62682 3.97542,8.53535 8.47313,16.81029 12.88382,25.17204 0.14518,-52.13795 0.058,-104.27587 0.0289,-156.4138 0.58035,-13.30935 -2.78568,-27.284167 -11.49096,-37.67124 -0.69643,-0.781201 -2.11827,-2.401469 -2.84373,-3.211605 -2.64061,-2.719741 -5.89058,-4.745079 -9.05349,-6.799347 27.62476,-20.166621 53.59551,-42.503186 81.13321,-62.8433318 z"
     fill="#1c5274"
     opacity="1"
     stroke="#1c5274"
     stroke-width="0.397781"
     id="path2"
     style="fill:#fafafa;fill-opacity:1;stroke:#ffffff;stroke-opacity:1" />
  <path
     d="m 307.82563,138.36115 c 9.43072,-4.10852 19.81902,-4.77401 29.94618,-5.41055 40.85676,-0.11567 81.74256,0.17361 122.59934,-0.26039 -1.74106,2.48826 -3.48212,4.97654 -5.25218,7.46482 -2.46651,3.41412 -4.99105,6.77039 -7.45753,10.18453 -7.34146,9.89522 -12.73873,21.87361 -12.44855,34.43071 -0.029,15.39255 0,30.78509 0.20312,46.17764 -1.62496,0.0289 -4.84594,0.0578 -6.47091,0.0868 -12.73873,0.17361 -25.50649,-0.57866 -38.18717,0.868 -1.04464,-0.37613 -3.07587,-1.12839 -4.09147,-1.50453 -0.37725,-6.30748 -0.58037,-12.61494 -1.18973,-18.86454 -0.52233,-1.56241 -1.62499,-4.65829 -2.1473,-6.19175 -15.11817,-24.85376 -57.07763,-17.12855 -67.17576,8.47747 -6.06466,13.94587 -4.64281,29.68565 -3.16288,44.41271 1.53791,5.75775 4.52673,11.05255 8.53115,15.42151 14.45077,16.31841 37.6068,11.31292 56.84547,11.92053 27.24752,-1.62026 55.33656,13.48295 66.59538,38.71286 9.60483,18.83562 7.22538,40.44885 7.45752,60.84687 -0.23214,10.79213 0.69644,21.72897 -1.30578,32.40536 -1.13169,4.02176 -2.2924,8.04347 -3.36603,12.06523 -4.55578,11.42867 -10.06913,22.42334 -16.8012,32.72363 -21.444,25.11417 -50.69373,45.80153 -84.64434,47.97152 -27.27653,0.92589 -54.61111,0.46295 -81.88766,-0.43399 -0.058,-26.82124 0.40625,-53.64249 0.029,-80.46369 0.26117,-8.39069 0.26117,-16.81029 0.029,-25.22991 16.39495,-0.31827 32.7899,0.14459 49.21387,-0.23146 0.26114,13.62762 -1.62501,31.16123 11.63605,39.72552 22.51765,15.7108 54.14682,-0.0289 66.01503,-21.98938 2.93078,-5.67094 5.83253,-11.63122 6.00664,-18.1412 0.3192,-4.97656 0.55135,-9.95309 0.63839,-14.92962 0.72543,-9.54801 -1.21875,-19.09602 -6.61603,-27.11056 -6.18073,-10.30029 -18.25205,-16.66563 -30.26533,-16.14483 -23.73639,-0.20254 -48.83662,2.05426 -70.39671,-10.01095 -5.45531,-5.06334 -10.99764,-9.98202 -15.98869,-15.47934 -10.93962,-14.40883 -13.17398,-33.04191 -12.99988,-50.57555 0.20312,-22.30762 -0.43526,-44.64418 0.29019,-66.98074 0.29018,-1.70706 0.87051,-5.15014 1.13169,-6.8572 3.54014,-24.94058 20.57345,-48.46338 44.68707,-57.08553 z"
     fill="#1b5273"
     opacity="1"
     stroke="#1b5273"
     stroke-width="0.397781"
     id="path7"
     style="fill:#fafafa;fill-opacity:1;stroke:#ffffff;stroke-opacity:1" />
</svg>
